<svg xmlns="http://www.w3.org/2000/svg" width="27" height="26" viewBox="0 0 27 26"><defs><style>.a{fill:#117bb8;}.b{fill:#fff;}</style></defs><g transform="translate(0.171)"><rect class="a" width="27" height="26" rx="3.1" transform="translate(-0.171)"/><g transform="translate(6.638 6.635)"><g transform="translate(0)"><rect class="b" width="2.715" height="8.77" transform="translate(0.261 4.385)"/><path class="b" d="M3882.278,2110.415a1.619,1.619,0,1,0-1.6-1.618A1.612,1.612,0,0,0,3882.278,2110.415Z" transform="translate(-3880.673 -2107.178)"/></g><path class="b" d="M3886.843,2114.728c0-1.232.567-1.967,1.654-1.967,1,0,1.478.706,1.478,1.967v4.6h2.7v-5.553c0-2.349-1.332-3.486-3.191-3.486a3.057,3.057,0,0,0-2.643,1.45v-1.181h-2.6v8.77h2.6Z" transform="translate(-3879.528 -2106.177)"/></g></g></svg>